<svg width="21" height="20" viewBox="0 0 25 24" xmlns="http://www.w3.org/2000/svg">
<path d="M10.656 1.34855C10.7798 1.09735 10.9714 0.885823 11.2092 0.737907C11.447 0.589991 11.7215 0.511597 12.0015 0.511597C12.2815 0.511597 12.556 0.589991 12.7938 0.737907C13.0316 0.885823 13.2232 1.09735 13.347 1.34855L16.242 7.21505L22.7175 8.15555C22.9946 8.19578 23.2548 8.31275 23.4688 8.49321C23.6829 8.67367 23.8421 8.91042 23.9286 9.17669C24.0151 9.44296 24.0253 9.72811 23.9581 9.99989C23.8909 10.2717 23.7491 10.5192 23.5485 10.7146L18.8625 15.2821L19.9695 21.7306C20.0168 22.0064 19.9859 22.29 19.8804 22.5492C19.775 22.8084 19.599 23.033 19.3726 23.1975C19.1462 23.362 18.8782 23.4598 18.5991 23.48C18.3199 23.5001 18.0407 23.4418 17.793 23.3116L12.003 20.2666L6.21 23.3116C5.96233 23.4414 5.68329 23.4994 5.40439 23.479C5.1255 23.4587 4.85784 23.3607 4.63165 23.1963C4.40545 23.0319 4.22972 22.8075 4.12429 22.5485C4.01887 22.2895 3.98794 22.0062 4.035 21.7306L5.1405 15.2806L0.454503 10.7146C0.253948 10.5192 0.112059 10.2717 0.0448864 9.99989C-0.022286 9.72811 -0.0120604 9.44296 0.0744065 9.17669C0.160873 8.91042 0.32013 8.67367 0.534161 8.49321C0.748192 8.31275 1.00845 8.19578 1.2855 8.15555L7.761 7.21505L10.656 1.35005V1.34855Z"/>
</svg>
